<svg width="29" height="25" viewBox="0 0 29 25" fill="none" xmlns="http://www.w3.org/2000/svg">
<path d="M25.3731 1.92559C24.0706 0.847968 22.3978 0.255748 20.6639 0.255748C18.6611 0.255748 16.7225 1.0521 15.3458 2.44304C15.0983 2.69346 14.8663 2.96227 14.6485 3.25423C12.9626 1.01056 10.1457 -0.140648 7.35969 0.368495C5.04777 0.788034 3.23017 2.05852 1.96087 4.14197C0.169973 7.08348 0.0234018 9.92056 1.52769 12.5749C2.33175 13.9949 3.37496 15.3787 4.71725 16.8053C7.17573 19.4186 10.0858 21.8991 13.8759 24.6086C14.118 24.7824 14.3773 24.8703 14.6479 24.8703C15.0645 24.8703 15.3457 24.6596 15.4852 24.5563C18.905 22.1145 21.5914 19.8637 23.9401 17.4693C25.2515 16.1329 26.7397 14.4904 27.8281 12.439C28.2945 11.5625 28.8262 10.3828 28.7947 9.0352C28.7247 6.13522 27.5741 3.7432 25.3731 1.92559ZM26.0466 11.4931C25.0776 13.3172 23.7104 14.8227 22.4999 16.0558C20.328 18.2704 17.8446 20.3663 14.6443 22.677C11.1616 20.1574 8.46579 17.8437 6.18711 15.4203C4.95698 14.113 4.00694 12.8567 3.28239 11.5779C2.13533 9.55443 2.26292 7.52379 3.68472 5.19052C4.64129 3.61918 5.999 2.66379 7.72107 2.35107C8.051 2.29054 8.38509 2.26087 8.71443 2.26087C10.7557 2.26087 12.5639 3.38834 13.5851 5.34599L13.7584 5.67296C13.9364 6.00704 14.3031 6.19694 14.6651 6.20584C15.0443 6.19872 15.3867 5.98212 15.5534 5.64151C15.9119 4.91043 16.3029 4.34313 16.78 3.8601C17.7805 2.85071 19.1958 2.27096 20.6639 2.27096C21.9296 2.27096 23.1455 2.69999 24.0884 3.47973C25.8425 4.92823 26.7219 6.76186 26.7783 9.08089C26.7979 9.95616 26.4199 10.7905 26.0466 11.4931Z" fill="white"/>
</svg>
